<?xml version="1.0" encoding="UTF-8" standalone="no"?><!-- Generator: Gravit.io --><svg xmlns="http://www.w3.org/2000/svg" xmlns:xlink="http://www.w3.org/1999/xlink" style="isolation:isolate" viewBox="-2600.833 982.667 53.667 76.667" width="53.667pt" height="76.667pt"><path d=" M -2585.5 1055.5 C -2585.5 1057.608 -2583.775 1059.333 -2581.667 1059.333 L -2566.333 1059.333 C -2564.225 1059.333 -2562.5 1057.608 -2562.5 1055.5 L -2562.5 1051.667 L -2585.5 1051.667 L -2585.5 1055.5 Z  M -2574 982.667 C -2588.797 982.667 -2600.833 994.703 -2600.833 1009.5 C -2600.833 1018.623 -2596.272 1026.635 -2589.333 1031.503 L -2589.333 1040.167 C -2589.333 1042.275 -2587.608 1044 -2585.5 1044 L -2562.5 1044 C -2560.392 1044 -2558.667 1042.275 -2558.667 1040.167 L -2558.667 1031.503 C -2551.728 1026.635 -2547.167 1018.623 -2547.167 1009.5 C -2547.167 994.703 -2559.203 982.667 -2574 982.667 Z  M -2563.075 1025.217 L -2566.333 1027.517 L -2566.333 1036.333 L -2581.667 1036.333 L -2581.667 1027.517 L -2584.925 1025.217 C -2590.08 1021.643 -2593.158 1015.772 -2593.167 1009.5 C -2593.167 998.92 -2584.58 990.333 -2574 990.333 C -2563.42 990.333 -2554.833 998.92 -2554.833 1009.5 C -2554.833 1015.748 -2557.9 1021.613 -2563.075 1025.217 Z " fill="rgb(91,148,159)"/></svg>